#!OML:ASF I:\Actors\actors\Patient Classification 2\Patient 1\Session 1\actor1.ASF
:FULLY-SPECIFIED
:DEGREES
452
root -0.624332 18.7896 5.46374 3.80461 6.89252 -1.52215
lowerback 11.9576 4.09583 4.07009
upperback 1.31308 6.04395 1.43189
thorax -5.03766 2.9057 -1.73581
lowerneck -9.93817 -9.80247 -7.11115
upperneck 17.7691 -13.71 7.70077
head 8.16909 -6.3047 2.23231
rclavicle 5.28767e-014 1.35174e-014
rhumerus -4.57725 2.86358 -44.0888
rradius 70.9246
rwrist 9.8525
rhand -11.4733 -45.5549
rfingers 7.12502
rthumb 14.5646 -75.0236
lclavicle 5.28767e-014 1.35174e-014
lhumerus -43.3673 -4.68688 89.0794
lradius 52.0838
lwrist -2.25319
lhand -7.38476 -21.7378
lfingers 7.12502
lthumb 18.5007 7.40245
rfemur 0 0 0
rtibia 0
rfoot 0 0
rtoes 0
lfemur -11.691 -6.42439 -12.308
ltibia 23.3749
lfoot -18.3081 7.47233
ltoes -56.0502
453
root -0.628798 18.7822 5.50137 3.54332 6.56874 -1.74325
lowerback 11.5287 4.05791 3.80677
upperback 1.17657 5.94235 1.38826
thorax -4.97087 2.86222 -1.59269
lowerneck -10.0402 -9.57108 -7.08471
upperneck 17.7131 -13.3882 7.69977
head 8.14069 -6.15155 2.26458
rclavicle -1.51076e-014 3.97569e-015
rhumerus -7.23818 4.46582 -44.3368
rradius 74.6148
rwrist 8.83223
rhand -11.6775 -44.976
rfingers 7.12502
rthumb 14.3677 -74.4588
lclavicle -1.51076e-014 3.97569e-015
lhumerus -43.3288 -4.00808 88.7296
lradius 51.159
lwrist -2.92891
lhand -7.1386 -21.7109
lfingers 7.12502
lthumb 18.7375 7.40666
rfemur 0 0 0
rtibia 0
rfoot 0 0
rtoes 0
lfemur -11.2017 -6.44129 -12.0907
ltibia 23.3489
lfoot -18.5688 7.64875
ltoes -56.0024
454
root -0.630312 18.7741 5.53821 3.30901 6.23352 -1.88319
lowerback 11.1138 3.99265 3.50245
upperback 1.01363 5.80169 1.31622
thorax -4.94103 2.79885 -1.45404
lowerneck -10.1548 -9.29455 -6.9258
upperneck 17.6747 -12.9905 7.51727
head 8.09219 -5.96956 2.22644
rclavicle 8.64713e-015 -2.8625e-014
rhumerus -9.85559 5.95435 -44.8857
rradius 78.1112
rwrist 8.03283
rhand -11.5497 -44.7719
rfingers 7.12502
rthumb 14.4909 -74.2458
lclavicle 8.64713e-015 -2.8625e-014
lhumerus -43.3612 -3.29112 88.3411
lradius 50.241
lwrist -3.602
lhand -6.91172 -21.6925
lfingers 7.12502
lthumb 18.9557 7.40388
rfemur 0 0 0
rtibia 0
rfoot 0 0
rtoes 0
lfemur -10.7405 -6.45461 -11.9824
ltibia 23.3496
lfoot -18.8007 7.87471
ltoes -56.0705
455
root -0.630546 18.7662 5.57422 3.08279 5.93645 -1.92801
lowerback 10.7254 3.87963 3.21341
upperback 0.861429 5.59845 1.17314
thorax -4.90661 2.70388 -1.391
lowerneck -10.2969 -8.98905 -6.85036
upperneck 17.6022 -12.5702 7.50926
head 8.05475 -5.76643 2.25908
rclavicle -4.42296e-014 -4.77083e-015
rhumerus -12.3247 7.2613 -45.8085
rradius 81.1364
rwrist 7.71049
rhand -11.8467 -44.2133
rfingers 7.12502
rthumb 14.2047 -73.7076
lclavicle -4.42296e-014 -4.77083e-015
lhumerus -43.3965 -2.58658 87.8805
lradius 49.3723
lwrist -4.21138
lhand -6.72986 -21.8144
lfingers 7.12502
lthumb 19.1306 7.26472
rfemur 0 0 0
rtibia 0
rfoot 0 0
rtoes 0
lfemur -10.2932 -6.39135 -11.9867
ltibia 23.3588
lfoot -18.9874 8.02686
ltoes -56.1703
456
root -0.632399 18.758 5.60939 2.80002 5.70776 -1.97223
lowerback 10.3886 3.75813 2.97158
upperback 0.74428 5.39135 1.01368
thorax -4.85686 2.60638 -1.37379
lowerneck -10.446 -8.72197 -6.7466
upperneck 17.5002 -12.2114 7.53002
head 8.01409 -5.58812 2.28878
rclavicle -2.03754e-015 -9.93923e-015
rhumerus -14.7986 8.40726 -46.904
rradius 83.7827
rwrist 7.69629
rhand -12.3611 -43.1169
rfingers 7.12502
rthumb 13.709 -72.6453
lclavicle -2.03754e-015 -9.93923e-015
lhumerus -43.3887 -1.91776 87.3879
lradius 48.4834
lwrist -4.86801
lhand -6.67026 -21.952
lfingers 7.12502
lthumb 19.1879 7.1214
rfemur 0 0 0
rtibia 0
rfoot 0 0
rtoes 0
lfemur -9.79066 -6.38962 -11.9845
ltibia 23.3512
lfoot -19.2064 8.13431
ltoes -56.1911
457
root -0.634293 18.7486 5.64588 2.47625 5.45327 -1.99704
lowerback 10.0402 3.66172 2.6709
upperback 0.657159 5.21352 0.896771
thorax -4.77639 2.52577 -1.2828
lowerneck -10.5382 -8.48404 -6.56238
upperneck 17.3745 -11.8709 7.36564
head 7.94003 -5.43175 2.24588
rclavicle 1.10822e-014 1.47101e-014
rhumerus -17.2588 9.29938 -48.1168
rradius 86.2625
rwrist 7.37183
rhand -12.294 -42.9801
rfingers 7.12502
rthumb 13.7737 -72.5042
lclavicle 1.10822e-014 1.47101e-014
lhumerus -43.4173 -1.2531 86.9569
lradius 47.6117
lwrist -5.61747
lhand -6.71342 -22.013
lfingers 7.12502
lthumb 19.1464 7.06454
rfemur 0 0 0
rtibia 0
rfoot 0 0
rtoes 0
lfemur -9.21156 -6.50925 -12.0152
ltibia 23.3318
lfoot -19.5153 8.31103
ltoes -56.0894
458
root -0.635356 18.7408 5.68157 2.22222 5.21552 -2.02164
lowerback 9.60867 3.51712 2.38989
upperback 0.562133 4.974 0.786004
thorax -4.65723 2.41494 -1.18376
lowerneck -10.6633 -8.1844 -6.42684
upperneck 17.3146 -11.4489 7.24441
head 7.89466 -5.23354 2.23198
rclavicle 5.72003e-014 -9.54166e-015
rhumerus -19.6846 10.0645 -49.6243
rradius 88.4298
rwrist 7.57013
rhand -12.174 -42.4286
rfingers 7.12502
rthumb 13.8893 -71.9448
lclavicle 5.72003e-014 -9.54166e-015
lhumerus -43.4895 -0.482917 86.4899
lradius 46.7971
lwrist -6.41426
lhand -6.76143 -22.1634
lfingers 7.12502
lthumb 19.1003 6.9187
rfemur 0 0 0
rtibia 0
rfoot 0 0
rtoes 0
lfemur -8.71727 -6.59999 -12.0396
ltibia 23.3203
lfoot -19.7649 8.46329
ltoes -56.0172
459
root -0.637536 18.7335 5.71507 2.00688 4.98654 -2.0521
lowerback 9.17306 3.3264 2.11707
upperback 0.450524 4.67681 0.674206
thorax -4.55227 2.27469 -1.08549
lowerneck -10.8949 -7.81382 -6.15277
upperneck 17.3917 -10.931 6.98027
head 7.89127 -4.98816 2.1556
rclavicle 5.17337e-014 6.95746e-015
rhumerus -22.0103 10.7561 -51.3328
rradius 90.2465
rwrist 7.72545
rhand -12.4048 -42.0156
rfingers 7.12502
rthumb 13.6669 -71.5468
lclavicle 5.17337e-014 6.95746e-015
lhumerus -43.5837 0.394059 85.9407
lradius 46.0106
lwrist -7.15622
lhand -6.73104 -22.3133
lfingers 7.12502
lthumb 19.1295 6.76599
rfemur 0 0 0
rtibia 0
rfoot 0 0
rtoes 0
lfemur -8.28597 -6.5997 -12.0429
ltibia 23.3104
lfoot -19.9569 8.56113
ltoes -55.9852
460
root -0.641426 18.7247 5.74639 1.77049 4.61454 -2.09255
lowerback 8.80873 3.18841 1.81334
upperback 0.33183 4.4522 0.591396
thorax -4.49523 2.17006 -0.956067
lowerneck -11.167 -7.43716 -5.78141
upperneck 17.5726 -10.4027 6.58462
head 7.91892 -4.74064 2.01942
rclavicle -4.18814e-014 -4.47266e-015
rhumerus -24.2655 11.4395 -53.186
rradius 91.7478
rwrist 7.47044
rhand -12.5421 -41.9276
rfingers 7.12502
rthumb 13.5346 -71.4678
lclavicle -4.18814e-014 -4.47266e-015
lhumerus -43.711 1.35504 85.3176
lradius 45.147
lwrist -7.95433
lhand -6.6685 -22.9645
lfingers 7.12502
lthumb 19.1896 6.10873
rfemur 0 0 0
rtibia 0
rfoot 0 0
rtoes 0
lfemur -7.80837 -6.51329 -12.0422
ltibia 23.2976
lfoot -20.2278 8.70426
ltoes -55.9348
461
root -0.644712 18.7165 5.77489 1.59289 4.20981 -2.11229
lowerback 8.43429 3.08396 1.50435
upperback 0.189737 4.2736 0.499428
thorax -4.45353 2.08783 -0.840207
lowerneck -11.403 -7.07842 -5.4377
upperneck 17.7443 -9.91996 6.30748
head 7.95229 -4.50707 1.92182
rclavicle -6.18717e-015 -6.21202e-015
rhumerus -26.6009 11.9913 -55.1868
rradius 92.9749
rwrist 7.23753
rhand -12.756 -41.6291
rfingers 7.12502
rthumb 13.3284 -71.1829
lclavicle -6.18717e-015 -6.21202e-015
lhumerus -43.8168 2.37938 84.6212
lradius 44.1358
lwrist -8.73172
lhand -6.60665 -24.2858
lfingers 7.12502
lthumb 19.2491 4.78156
rfemur 0 0 0
rtibia 0
rfoot 0 0
rtoes 0
lfemur -7.39738 -6.32839 -12.0553
ltibia 23.2848
lfoot -20.4794 8.79839
ltoes -55.9415
462
root -0.64518 18.7089 5.8039 1.44071 3.90334 -2.10601
lowerback 8.03654 2.95909 1.25615
upperback 0.0461165 4.07391 0.377794
thorax -4.3926 1.99385 -0.786064
lowerneck -11.5817 -6.72937 -5.01448
upperneck 17.7944 -9.45935 6.02076
head 7.93532 -4.28344 1.80826
rclavicle -1.64991e-014 -9.36773e-015
rhumerus -28.9753 12.0958 -57.1925
rradius 93.8757
rwrist 7.96638
rhand -12.2479 -41.1198
rfingers 7.12502
rthumb 13.8181 -70.6409
lclavicle -1.64991e-014 -9.36773e-015
lhumerus -43.9127 3.1417 84.0843
lradius 43.2347
lwrist -8.89325
lhand -6.64498 -25.2014
lfingers 7.12502
lthumb 19.2122 3.86963
rfemur 0 0 0
rtibia 0
rfoot 0 0
rtoes 0
lfemur -7.03496 -6.2002 -12.0959
ltibia 23.2594
lfoot -20.6571 8.89864
ltoes -55.9872
